<svg id="Capa_1" data-name="Capa 1" xmlns="http://www.w3.org/2000/svg" viewBox="0 0 841.89 595.28"><defs><style>.cls-1{fill:#232323;}.cls-2{fill:#fff;}</style></defs><circle class="cls-1" cx="408.59" cy="301.01" r="172.39"/><path class="cls-2" d="M502.55,296.77H420.08V195.86a16.39,16.39,0,0,0-31-7.38L334.48,296.77h-3.92c-18.57,0-30.32.36-37.4,7.38-7.24,7.17-8.19,18.31-2.31,27.1a5.74,5.74,0,0,0,.35.47c7.36,8.78,18.14,11,27.47,5.55,12.75-7.39,21.3-26.82,22.28-29.14l.24-.47h68V408.33a6,6,0,0,0,6,6h25.2A54.54,54.54,0,0,0,453.6,413a25.06,25.06,0,0,0,8.95-4,20.79,20.79,0,0,0,6-7.62A23.85,23.85,0,0,0,471,390.61a19.87,19.87,0,0,0-4-12.39,21.33,21.33,0,0,0-11.41-7.42,20.34,20.34,0,0,0,8.59-7.48,18.53,18.53,0,0,0,2.85-9.87,20.14,20.14,0,0,0-3.21-10.8,19.33,19.33,0,0,0-8.87-7.64q-5.67-2.49-15-2.49H420.08V307.66h82.47a5.45,5.45,0,0,0,0-10.89ZM313.21,327.85c-6.49,3.77-11.46-.58-13.47-2.89-2.81-4.42-2.39-9.64,1.08-13.08,3.86-3.82,13.31-4.2,28.35-4.22C326,314,320,323.94,313.21,327.85Zm96-31.08H346.67l52.1-103.39a5.51,5.51,0,0,1,10.43,2.48Zm48.22,85.88a13.66,13.66,0,0,1,2.34,8,14.34,14.34,0,0,1-1.61,6.89A11.86,11.86,0,0,1,454,402a17.62,17.62,0,0,1-6.25,2.24,47,47,0,0,1-7.37.39H420.08V376.55H439q7.82,0,12,1.36A12.35,12.35,0,0,1,457.42,382.65Zm-21-40.47q8.81,0,12.44,1.14a9.88,9.88,0,0,1,5.58,4.24,13.15,13.15,0,0,1,1.95,7.17,11.77,11.77,0,0,1-2.09,7.14,11.43,11.43,0,0,1-6.22,4.07c-2.09.64-5.53.95-10.33.95H420.08V342.18Z"/></svg>