<?xml version="1.0" encoding="UTF-8"?>
<svg xmlns="http://www.w3.org/2000/svg" xmlns:xlink="http://www.w3.org/1999/xlink" width="10px" height="10px" viewBox="0 0 10 10" version="1.1">
<g id="surface1">
<path style=" stroke:none;fill-rule:nonzero;fill:rgb(0%,0%,0%);fill-opacity:1;" d="M 4.664062 0.0390625 C 3.84375 0.121094 3.335938 0.265625 2.675781 0.601562 C 1.765625 1.070312 1.019531 1.816406 0.550781 2.726562 C 0.277344 3.261719 0.121094 3.742188 0.0390625 4.296875 C -0.0117188 4.617188 -0.0117188 5.433594 0.0390625 5.753906 C 0.273438 7.335938 1.265625 8.726562 2.675781 9.449219 C 3.210938 9.722656 3.691406 9.878906 4.246094 9.960938 C 4.566406 10.011719 5.382812 10.011719 5.703125 9.960938 C 7.289062 9.726562 8.675781 8.734375 9.398438 7.324219 C 9.675781 6.773438 9.847656 6.246094 9.925781 5.675781 C 9.96875 5.371094 9.96875 4.679688 9.925781 4.375 C 9.703125 2.757812 8.703125 1.335938 7.273438 0.601562 C 6.738281 0.328125 6.257812 0.171875 5.707031 0.0859375 C 5.460938 0.0507812 4.839844 0.0234375 4.664062 0.0390625 Z M 4.664062 0.0390625 "/>
</g>
</svg>
